<?xml version="1.0" standalone="no"?>
<!DOCTYPE svg PUBLIC "-//W3C//DTD SVG 20010904//EN"
 "http://www.w3.org/TR/2001/REC-SVG-20010904/DTD/svg10.dtd">
<svg version="1.0" xmlns="http://www.w3.org/2000/svg"
 width="900.000000pt" height="900.000000pt" viewBox="0 0 900.000000 900.000000"
 preserveAspectRatio="xMidYMid meet">
<metadata>
Created by potrace 1.11, written by Peter Selinger 2001-2013
</metadata>
<g transform="translate(0.000000,900.000000) scale(0.100000,-0.100000)"
fill="#000000" stroke="none">
<path d="M4395 7682 c-55 -81 -151 -221 -213 -312 -62 -91 -151 -221 -198
-290 -47 -69 -122 -179 -167 -245 -46 -66 -121 -176 -167 -245 -47 -69 -89
-129 -93 -135 -8 -10 -250 -364 -387 -565 -41 -61 -125 -184 -186 -273 -187
-272 -231 -336 -344 -502 -59 -88 -122 -180 -140 -205 -17 -25 -87 -127 -156
-228 l-125 -183 143 -210 c79 -115 168 -246 198 -289 30 -44 145 -211 255
-372 109 -161 485 -711 835 -1223 350 -511 683 -999 740 -1082 57 -84 107
-153 110 -153 3 0 24 28 47 63 40 61 146 215 267 392 35 50 112 162 172 250
60 88 141 207 181 265 39 58 110 161 157 230 47 69 137 202 201 295 64 94 150
220 191 280 42 61 114 167 162 236 48 70 120 176 161 235 41 60 107 156 146
214 192 279 289 421 413 605 74 110 146 214 160 232 l24 32 -388 568 c-213
312 -418 613 -456 668 -101 147 -354 515 -482 705 -62 91 -231 338 -376 550
-259 377 -437 638 -527 773 -25 37 -49 67 -52 67 -3 -1 -51 -67 -106 -148z"/>
</g>
</svg>
