<?xml version="1.0" encoding="UTF-8"?>
<svg width="141px" height="51px" viewBox="0 0 141 51" version="1.1" xmlns="http://www.w3.org/2000/svg" xmlns:xlink="http://www.w3.org/1999/xlink">
    <!-- Generator: Sketch 51.3 (57544) - http://www.bohemiancoding.com/sketch -->
    <title>Artboard 13</title>
    <desc>Created with Sketch.</desc>
    <defs></defs>
    <g id="Artboard-13" stroke="none" stroke-width="1" fill="none" fill-rule="evenodd">
        <path d="M115.506789,14.3969564 C105.156871,11.601515 94.6715866,9.97719114 84.0819568,9.51596337 C80.7570105,5.95247748 76.3688709,2.79206457 70.4240135,0.219215731 C69.7697407,-0.0655422851 68.9998422,-0.0735636377 68.3286487,0.19916235 C67.6574551,0.471888337 67.2739159,0.943142801 67.2795562,1.49260545 C67.316218,4.35823366 66.5999022,7.1677124 65.1757309,9.92104167 C49.6564945,11.2505809 33.9483086,15.0306433 18.1301372,21.2471915 C14.449853,16.9076398 9.59921035,12.7666165 3.57256883,8.82813238 C2.84779257,8.35286724 1.80152022,8.2927071 0.978039024,8.67171601 C0.148917543,9.04871958 -0.197959812,9.75860928 0.112255708,10.4223762 L6.35886823,23.6957094 L0.628341529,35.1602275 C0.326586431,35.7718557 0.574758848,36.4215852 1.28261426,36.8346849 C1.98764954,37.2457792 2.92957666,37.2999233 3.71639603,36.9690426 C8.36680869,35.0218592 12.7831496,32.6695976 16.8949154,29.7919373 C20.7641489,32.0379161 24.7038861,33.9750727 28.6746447,35.6415087 C27.7637391,36.7364233 26.7231071,37.7912312 25.5950506,38.8119483 C25.1889503,39.1789252 25.1071662,39.646169 25.3863602,40.0692953 C25.6655542,40.4924217 26.2154817,40.7531156 26.8669343,40.7711637 C30.9053763,40.8754413 33.858064,40.1234395 36.9517588,38.7217081 C41.5401284,40.2196957 46.1397785,41.3928185 50.6943064,42.2892046 C49.7326383,43.5966851 48.6525242,44.8640588 47.4539643,46.0873151 C47.0309431,46.5184628 46.9858208,47.0438614 47.3298781,47.5090998 C47.668295,47.9743383 48.3056469,48.2530803 49.0445238,48.2530803 C55.2290933,48.2470643 60.920138,47.3927902 65.3308387,44.3186068 C69.5328489,44.6675357 73.6446146,44.8199414 77.609733,44.8199414 C89.922469,44.8199414 100.858976,43.3580499 108.964062,41.8139395 L108.498738,42.9549769 C107.305819,45.6060339 109.054306,48.3573579 112.73459,49.6427796 C115.51807,50.6133633 119.000944,51.044511 122.088998,50.9963829 C126.993224,50.8419718 131.158572,48.9228632 132.983203,45.9349094 C139.193154,35.3226599 142.002015,23.1943748 140.679368,12.6483015 C140.273268,9.39363774 137.047027,6.73857004 132.252787,5.72386894 C129.401624,5.11424614 125.557772,4.99392585 122.698149,5.40702551 C118.772512,5.98857357 115.991853,8.24658432 115.938271,10.9096734 C115.92135,11.9905506 115.771882,13.1737001 115.506789,14.3969564 Z" id="Shape" fill="#FFFFFF" fill-rule="nonzero"></path>
    </g>
</svg>