<?xml version="1.0" encoding="UTF-8"?>
<svg width="812px" height="224px" viewBox="0 0 812 224" version="1.1" xmlns="http://www.w3.org/2000/svg" xmlns:xlink="http://www.w3.org/1999/xlink">
    <!-- Generator: Sketch 51.3 (57544) - http://www.bohemiancoding.com/sketch -->
    <title>Artboard 6 Copy 2</title>
    <desc>Created with Sketch.</desc>
    <defs>
        <radialGradient cx="100%" cy="73.8020667%" fx="100%" fy="73.8020667%" r="106.000722%" gradientTransform="translate(1.000000,0.738021),scale(0.943390,1.000000),rotate(180.000000),translate(-1.000000,-0.738021)" id="radialGradient-1">
            <stop stop-color="#04B6F1" offset="0%"></stop>
            <stop stop-color="#0384C8" offset="100%"></stop>
        </radialGradient>
        <radialGradient cx="100%" cy="73.8020667%" fx="100%" fy="73.8020667%" r="406.536552%" gradientTransform="translate(1.000000,0.738021),scale(1.000000,0.530033),rotate(-90.000000),translate(-1.000000,-0.738021)" id="radialGradient-2">
            <stop stop-color="#04B6F1" offset="0%"></stop>
            <stop stop-color="#0384C8" offset="100%"></stop>
        </radialGradient>
        <radialGradient cx="100%" cy="73.8020667%" fx="100%" fy="73.8020667%" r="106.166991%" gradientTransform="translate(1.000000,0.738021),scale(0.941912,1.000000),rotate(180.000000),translate(-1.000000,-0.738021)" id="radialGradient-3">
            <stop stop-color="#04B6F1" offset="0%"></stop>
            <stop stop-color="#0384C8" offset="100%"></stop>
        </radialGradient>
        <radialGradient cx="0%" cy="94.3982945%" fx="0%" fy="94.3982945%" r="292.817923%" gradientTransform="translate(0.000000,0.943983),scale(1.000000,0.530785),rotate(-90.000000),translate(-0.000000,-0.943983)" id="radialGradient-4">
            <stop stop-color="#04B6F1" offset="0%"></stop>
            <stop stop-color="#0384C8" offset="100%"></stop>
        </radialGradient>
    </defs>
    <g id="Artboard-6-Copy-2" stroke="none" stroke-width="1" fill="none" fill-rule="evenodd">
        <g id="Group">
            <path d="M252.735836,141.181215 C255.657959,141.181215 258.123464,140.884349 260.132423,140.290608 C262.141383,139.696866 263.785052,138.509401 265.063481,136.728177 C266.34191,134.946952 267.277889,132.457843 267.871445,129.260773 C268.465001,126.063704 268.761775,121.861904 268.761775,116.655249 L268.761775,108.434254 C268.761775,103.227598 268.465001,99.0257987 267.871445,95.8287293 C267.277889,92.6316599 266.319081,90.1425503 264.994994,88.361326 C263.670907,86.5801016 261.958751,85.3926365 259.858476,84.798895 C257.7582,84.2051536 255.247038,83.9082873 252.324915,83.9082873 L232.87463,83.9082873 L232.87463,141.181215 L252.735836,141.181215 Z M254.242548,65 C261.821805,65 268.031223,65.6394043 272.87099,66.918232 C277.710756,68.1970598 281.523156,70.4349748 284.308305,73.6320442 C287.093453,76.8291136 289.011068,81.1450925 290.061206,86.5801105 C291.111344,92.0151285 291.636405,98.8430528 291.636405,107.064088 L291.636405,118.025414 C291.636405,126.520484 291.111344,133.50826 290.061206,138.98895 C289.011068,144.469641 287.093453,148.78562 284.308305,151.937017 C281.523156,155.088414 277.710756,157.257821 272.87099,158.445304 C268.031223,159.632787 261.821805,160.226519 254.242548,160.226519 L210,160.226519 L210,65 L254.242548,65 Z M323.414334,116.655249 L333.413424,116.655249 C336.152915,116.655249 338.41296,116.8151 340.193629,117.134807 C341.974298,117.454514 343.435337,117.888395 344.576792,118.436464 C345.718246,118.984533 346.608567,119.623937 347.247782,120.354696 C347.886996,121.085455 348.389228,121.907546 348.754494,122.820994 L348.754494,115.559116 C348.754494,112.362047 347.841344,110.032788 346.015017,108.571271 C344.18869,107.109753 341.494898,106.379006 337.933561,106.379006 L330.947895,106.379006 C328.117089,106.379006 326.290789,106.698708 325.468942,107.338122 C324.647095,107.977535 324.053548,109.119329 323.688282,110.763536 L302.046416,110.763536 C302.046416,107.840501 302.411676,105.168705 303.142207,102.748066 C303.872738,100.327428 305.265291,98.2722 307.319909,96.5823204 C309.374527,94.8924409 312.273777,93.5679606 316.017747,92.6088398 C319.761718,91.649719 324.647069,91.1701657 330.673948,91.1701657 L337.659613,91.1701657 C342.864645,91.1701657 347.361907,91.5812114 351.151536,92.4033149 C354.941164,93.2254185 358.091531,94.5955705 360.60273,96.5138122 C363.11393,98.4320538 364.963058,100.989671 366.150171,104.18674 C367.337283,107.38381 367.93083,111.357251 367.93083,116.107182 L367.93083,160.089503 L348.891468,160.089503 L348.891468,154.19779 C348.252253,155.019894 347.567391,155.773477 346.83686,156.458564 C346.106329,157.14365 345.124693,157.760218 343.891923,158.308287 C342.659152,158.856356 341.152455,159.290238 339.371786,159.609945 C337.591117,159.929652 335.331072,160.089503 332.591581,160.089503 L322.729465,160.089503 C315.789423,160.089503 310.356182,158.650843 306.429579,155.773481 C302.502976,152.896118 300.539704,148.07775 300.539704,141.318232 L300.539704,135.563536 C300.539704,128.986707 302.388832,124.191175 306.087144,121.176796 C309.785456,118.162416 315.561129,116.655249 323.414334,116.655249 Z M322.729465,138.440884 C322.729465,140.541815 323.277355,142.140326 324.373151,143.236464 C325.468947,144.332602 327.249589,144.880663 329.715131,144.880663 L340.810011,144.880663 C343.001604,144.880663 344.645273,144.469617 345.741069,143.647514 C346.836866,142.82541 347.384755,141.089884 347.384755,138.440884 C347.384755,135.974573 346.814037,134.261883 345.672582,133.302762 C344.531128,132.343642 342.910287,131.864088 340.810011,131.864088 L329.578157,131.864088 C325.01234,131.864088 322.729465,134.056332 322.729465,138.440884 Z M404.228896,92.4033149 L404.228896,160.089503 L381.49124,160.089503 L381.49124,92.4033149 L404.228896,92.4033149 Z M404.228896,65 L404.228896,83.2232044 L381.49124,83.2232044 L381.49124,65 L404.228896,65 Z M443.403413,65 L443.403413,160.089503 L420.665757,160.089503 L420.665757,65 L443.403413,65 Z M476.551081,92.4033149 L493.261889,139.674033 L510.10967,92.4033149 L532.025484,92.4033149 L506.137429,160.089503 C504.219786,165.204814 502.188027,169.5893 500.042093,173.243094 C497.896159,176.896888 495.248025,179.888386 492.097611,182.21768 C488.947197,184.546973 485.111968,186.259663 480.591809,187.355801 C476.07165,188.451939 470.43295,189 463.67554,189 L463.67554,168.58453 C465.410551,168.58453 467.214022,168.561695 469.086007,168.516022 C470.957992,168.47035 472.80712,168.173483 474.633447,167.625414 C476.459774,167.077345 478.149101,166.232418 479.701479,165.090608 C481.253857,163.948797 482.577924,162.281779 483.67372,160.089503 L478.605688,160.089503 L454.635267,92.4033149 L476.551081,92.4033149 Z M584.486462,141.181215 C587.408585,141.181215 589.874089,140.884349 591.883049,140.290608 C593.892009,139.696866 595.535678,138.509401 596.814107,136.728177 C598.092536,134.946952 599.028514,132.457843 599.622071,129.260773 C600.215627,126.063704 600.5124,121.861904 600.5124,116.655249 L600.5124,108.434254 C600.5124,103.227598 600.215627,99.0257987 599.622071,95.8287293 C599.028514,92.6316599 598.069707,90.1425503 596.74562,88.361326 C595.421533,86.5801016 593.709377,85.3926365 591.609101,84.798895 C589.508825,84.2051536 586.997663,83.9082873 584.07554,83.9082873 L564.625256,83.9082873 L564.625256,141.181215 L584.486462,141.181215 Z M585.993174,65 C593.572431,65 599.781849,65.6394043 604.621615,66.918232 C609.461382,68.1970598 613.273782,70.4349748 616.058931,73.6320442 C618.844079,76.8291136 620.761694,81.1450925 621.811832,86.5801105 C622.86197,92.0151285 623.387031,98.8430528 623.387031,107.064088 L623.387031,118.025414 C623.387031,126.520484 622.86197,133.50826 621.811832,138.98895 C620.761694,144.469641 618.844079,148.78562 616.058931,151.937017 C613.273782,155.088414 609.461382,157.257821 604.621615,158.445304 C599.781849,159.632787 593.572431,160.226519 585.993174,160.226519 L541.750626,160.226519 L541.750626,65 L585.993174,65 Z M656.671672,92.4033149 L656.671672,160.089503 L633.934016,160.089503 L633.934016,92.4033149 L656.671672,92.4033149 Z M656.671672,65 L656.671672,83.2232044 L633.934016,83.2232044 L633.934016,65 L656.671672,65 Z M686.531968,92.4033149 L701.873038,140.359116 L717.077133,92.4033149 L739.12992,92.4033149 L717.077133,160.089503 L686.531968,160.089503 L664.479181,92.4033149 L686.531968,92.4033149 Z M745.841638,138.577901 L765.154949,138.577901 L765.154949,140.359116 C765.154949,141.911978 765.976784,143.099443 767.620478,143.921547 C769.264172,144.743651 771.273102,145.154696 773.647327,145.154696 L784.468259,145.154696 C786.842484,145.154696 788.577469,144.743651 789.673265,143.921547 C790.769061,143.099443 791.316951,141.592276 791.316951,139.4 C791.316951,136.020241 789.034077,134.239043 784.468259,134.056354 L769.12719,133.508287 C761.730566,133.234253 756.02338,131.772757 752.005461,129.123757 C747.987542,126.474757 745.978612,121.861911 745.978612,115.285083 L745.978612,111.996685 C745.978612,105.054477 748.147343,99.9164071 752.484869,96.5823204 C756.822396,93.2482338 763.922135,91.5812155 773.7843,91.5812155 L783.235495,91.5812155 C793.280293,91.5812155 800.517005,93.0655469 804.945848,96.0342541 C809.37469,99.0029614 811.589078,103.410284 811.589078,109.256354 L811.589078,113.092818 L791.043003,113.092818 L791.043003,111.722652 C791.043003,109.9871 790.266826,108.776799 788.714448,108.091713 C787.16207,107.406626 784.924853,107.064088 782.00273,107.064088 L773.099431,107.064088 C770.085992,107.064088 767.962919,107.429462 766.730148,108.160221 C765.497377,108.89098 764.881001,110.261132 764.881001,112.270718 C764.881001,114.097615 765.474548,115.353588 766.661661,116.038674 C767.848773,116.72376 769.949018,117.157642 772.962457,117.340331 L784.742207,117.751381 C788.212228,117.842726 791.590882,118.116756 794.878271,118.573481 C798.165659,119.030205 801.06491,119.875132 803.576109,121.108287 C806.087309,122.341443 808.119067,124.099804 809.671445,126.383425 C811.223823,128.667046 812,131.681381 812,135.426519 L812,139.537017 C812,143.19081 811.543425,146.34216 810.630262,148.99116 C809.717098,151.640161 808.164744,153.809568 805.973151,155.499448 C803.781559,157.189327 800.882309,158.4453 797.275313,159.267403 C793.668317,160.089507 789.171055,160.500552 783.78339,160.500552 L773.236405,160.500552 C754.973136,160.500552 745.841638,153.832479 745.841638,140.496133 L745.841638,138.577901 Z" id="DailyDivs" fill="#333333"></path>
            <g id="Group-7" fill-rule="nonzero">
                <g id="Group-6" transform="translate(0.000000, 79.000000)">
                    <polygon id="Path-2-Copy" fill="url(#radialGradient-1)" transform="translate(76.000140, 72.459515) rotate(-180.000000) translate(-76.000140, -72.459515) " points="3.26849658e-12 111.919031 76.0001399 0.761758242 152.00028 111.919031 76.0001399 144.157272"></polygon>
                    <polygon id="Path-2-Copy-2" fill="url(#radialGradient-2)" transform="translate(38.001541, 72.474893) rotate(-180.000000) translate(-38.001541, -72.474893) " points="2.13162821e-14 0.778353744 76.0030823 111.949786 0.118913694 144.171432"></polygon>
                </g>
                <g id="Group-6-Copy" transform="translate(76.000000, 72.500000) rotate(-180.000000) translate(-76.000000, -72.500000) ">
                    <polygon id="Path-2-Copy" fill="url(#radialGradient-3)" transform="translate(76.003319, 72.579634) rotate(-180.000000) translate(-76.003319, -72.579634) " points="0.00663757324 112.159267 76.0066376 0.997421265 152 112.159267 76.0033188 144.161846"></polygon>
                    <polygon id="Path-2-Copy-2" fill="url(#radialGradient-4)" transform="translate(38.005893, 72.587268) rotate(-180.000000) translate(-38.005893, -72.587268) " points="0.013219455 1.00898743 75.9985657 112.174537 0.013219455 144.165549"></polygon>
                </g>
            </g>
        </g>
    </g>
</svg>