<?xml version="1.0" encoding="UTF-8"?>
<svg width="100px" height="28px" viewBox="0 0 100 28" version="1.1" xmlns="http://www.w3.org/2000/svg" xmlns:xlink="http://www.w3.org/1999/xlink">
    <!-- Generator: Sketch 51.3 (57544) - http://www.bohemiancoding.com/sketch -->
    <title>Artboard 14</title>
    <desc>Created with Sketch.</desc>
    <defs></defs>
    <g id="Artboard-14" stroke="none" stroke-width="1" fill="none" fill-rule="evenodd">
        <path d="M27.4412361,4.93292161 C26.3312066,3.05778074 24.8851682,1.50139414 22.7531115,0.112255159 C22.3030996,-0.176984828 21.6990835,0.124060873 21.6890833,0.65728561 C21.6350818,2.54619981 21.0950675,4.36034449 20.1110414,6.10955774 C16.8329543,6.57588344 13.4948656,6.95366628 10.232779,7.44557102 C7.79071408,4.85618447 5.05064129,2.99284931 2.15056425,1.51516748 C1.60854986,1.23970082 0.984533279,1.3105351 0.5185209,1.70209128 C0.0565086267,2.09167983 -0.113495889,2.68393314 0.076509158,3.25454264 L3.39259725,13.1241193 L0.204512558,20.8863761 C-0.00949312656,21.4215685 0.0965096893,21.9882427 0.492520209,22.4112808 C0.884530622,22.8323513 1.45454576,22.9799227 2.00856048,22.8107075 C4.94063837,21.9115056 7.54870765,20.4495647 9.74676604,18.2851839 C14.7788997,19.2434143 20.209044,19.9478219 25.3011792,20.6502618 L23.5671332,23.3321265 C23.2811256,23.7610674 23.5771334,24.3356122 24.1011474,24.3670941 C27.2572312,24.5697588 30.373314,23.5898846 33.4633961,21.702938 C42.4296342,22.7792256 52.0778905,23.654816 62.0461553,24.0385017 L60.3261096,26.9525454 C60.0701028,27.3893568 60.3601105,27.9343872 60.8761242,27.9678368 C65.422245,28.2472386 69.4623523,26.681014 73.2684534,24.2529722 C76.5545407,24.2470693 79.8546284,24.1841055 83.1787167,24.0581779 C83.3347208,24.0503074 98.9211349,22.9759875 99.9711628,15.4714887 C100.191169,13.9406812 99.1291404,12.5121898 97.5770992,12.2485289 C90.4229091,11.0148318 87.44483,8.93899381 84.2927463,6.73722819 C81.3486681,4.68500162 78.3085873,2.55603791 72.4304312,1.48368557 C70.4403783,1.11967607 68.3063216,1.06655035 66.286268,1.06655035 C40.7029217,3.23224295 27.7545777,4.52103337 27.4412361,4.93292161 Z" id="Shape" fill="#FFFFFF" fill-rule="nonzero"></path>
    </g>
</svg>