<?xml version="1.0" encoding="UTF-8"?>
<svg width="100px" height="28px" viewBox="0 0 100 28" version="1.1" xmlns="http://www.w3.org/2000/svg" xmlns:xlink="http://www.w3.org/1999/xlink">
    <!-- Generator: Sketch 51.3 (57544) - http://www.bohemiancoding.com/sketch -->
    <title>Artboard 14</title>
    <desc>Created with Sketch.</desc>
    <defs></defs>
    <g id="Artboard-14" stroke="none" stroke-width="1" fill="none" fill-rule="evenodd">
        <path d="M38.720618,9.4664608 C38.1656033,8.52889037 37.4425841,7.75069707 36.3765558,7.05612758 C36.1515498,6.91150759 35.8495418,7.06203044 35.8445416,7.32864281 C35.8175409,8.27309991 35.5475337,9.18017224 35.0555207,10.0547789 C33.4164771,10.2879417 31.7474328,10.4768331 30.1163895,10.7227855 C28.895357,9.42809223 27.5253206,8.49642466 26.0752821,7.75758374 C25.8042749,7.61985041 25.4922666,7.65526755 25.2592604,7.85104564 C25.0282543,8.04583992 24.9432521,8.34196657 25.0382546,8.62727132 L26.6962986,13.5620597 L25.1022563,17.4431881 C24.9952534,17.7107842 25.0482548,17.9941214 25.2462601,18.2056404 C25.4422653,18.4161756 25.7272729,18.4899613 26.0042802,18.4053537 C27.4703192,17.9557528 28.7743538,17.2247824 29.873383,16.1425919 C32.3894499,16.6217071 35.104522,16.9739109 37.6505896,17.3251309 L36.7835666,18.6660632 C36.6405628,18.8805337 36.7885667,19.1678061 37.0505737,19.183547 C38.6286156,19.2848794 40.186657,18.7949423 41.731698,17.851469 C46.2148171,18.3896128 51.0389453,18.827408 56.0230777,19.0192508 L55.1630548,20.4762727 C55.0350514,20.6946784 55.1800553,20.9671936 55.4380621,20.9839184 C57.7111225,21.1236193 59.7311762,20.340507 61.6342267,19.1264861 C63.2772704,19.1235347 64.9273142,19.0920527 66.5893583,19.0290889 C66.6673604,19.0251537 74.4605674,18.4879937 74.9855814,14.7357444 C75.0955843,13.9703406 74.5645702,13.2560949 73.7885496,13.1242644 C70.2114546,12.5074159 68.722415,11.4694969 67.1463731,10.3686141 C65.674334,9.34250081 64.1542937,8.27801895 61.2152156,7.74184279 C60.2201892,7.55983803 59.1531608,7.53327518 58.143134,7.53327518 C45.3514608,8.61612148 38.8772889,9.26051669 38.720618,9.4664608 Z" id="Shape" fill="#FFFFFF" fill-rule="nonzero"></path>
    </g>
</svg>