<?xml version="1.0" encoding="UTF-8"?>
<svg width="100px" height="62px" viewBox="0 0 100 62" version="1.1" xmlns="http://www.w3.org/2000/svg" xmlns:xlink="http://www.w3.org/1999/xlink">
    <!-- Generator: Sketch 51.3 (57544) - http://www.bohemiancoding.com/sketch -->
    <title>Artboard 10</title>
    <desc>Created with Sketch.</desc>
    <defs></defs>
    <g id="Artboard-10" stroke="none" stroke-width="1" fill="none" fill-rule="evenodd">
        <path d="M89.9215137,21.1747099 C82.4014367,10.5602941 69.4813044,4.93479344 56.5911724,5.29798646 L54.1551475,2.50020287 C52.3291288,0.400867393 49.613101,-0.445252609 46.8690729,0.225257581 C40.9530123,1.68002523 36.3929656,4.4199374 32.9889308,7.48911798 C31.250913,9.05763289 31.1729122,11.6678333 32.8009289,13.3281442 C31.4689152,14.1962154 30.1249015,15.150096 28.7648875,16.1957726 L27.4768743,15.1221581 C26.4988643,14.2959937 24.996849,14.4636213 24.2388412,15.5013156 C22.8128266,17.4410058 22.0328186,19.8117383 21.878817,22.2563067 L20.6348043,23.4536463 C15.33075,19.5882349 10.3406989,16.465174 4.24063644,13.8509825 C3.30862689,13.4518693 2.24661602,13.6314703 1.53260871,14.3059716 C0.822601441,14.9864596 0.670599885,15.9583003 1.14460474,16.7884557 L10.2646981,32.6671747 L0.248595564,51.2937882 C-0.209409126,52.1399082 -0.0234072212,53.1137444 0.714600335,53.7722812 C1.45060787,54.430818 2.52061883,54.582481 3.44462829,54.1514388 C9.7846932,51.1800409 15.034747,47.7795964 20.6488044,43.6447835 C21.8228165,44.9538749 23.3868325,46.3966691 25.0568496,47.7975565 C23.8448372,49.1465591 23.1168297,50.6332558 24.3288421,52.435252 C26.0988602,55.065408 28.02888,57.1787124 30.6049064,59.3518839 C32.328924,60.8086471 34.7169485,61.0141904 36.6849686,59.8847 C37.8529806,59.2121942 38.9769921,58.4778259 40.0550031,57.6915729 C45.8470624,60.4314851 51.9771252,62 58.7591946,62 C71.4353244,61.5230597 81.6334288,55.8356965 89.6695111,46.2170682 C91.8715337,45.5365801 94.3595591,44.86607 96.4195802,43.8882426 C101.063628,41.6851377 99.8596155,37.963407 99.8596155,33.7946696 C99.8616155,26.2713856 93.0855461,22.6314731 89.9215137,21.1747099 Z" id="Shape" fill="#FFFFFF" fill-rule="nonzero"></path>
    </g>
</svg>