<?xml version="1.0" encoding="UTF-8"?>
<svg width="511px" height="181px" viewBox="0 0 511 181" version="1.1" xmlns="http://www.w3.org/2000/svg" xmlns:xlink="http://www.w3.org/1999/xlink">
    <!-- Generator: Sketch 51.3 (57544) - http://www.bohemiancoding.com/sketch -->
    <title>Artboard 15</title>
    <desc>Created with Sketch.</desc>
    <defs></defs>
    <g id="Artboard-15" stroke="none" stroke-width="1" fill="none" fill-rule="evenodd">
        <path d="M223.177647,180.048416 C225.306797,178.101826 222.664329,177.84908 215.869607,169.942052 C214.333133,168.154055 212.033437,164.401478 208.97052,158.684319 C239.876221,153.925262 263.005645,149.581824 278.358791,145.654008 C292.143124,142.127543 306.822325,134.332477 319.88825,130.525314 C326.641155,128.557646 338.748754,126.146308 347.330369,127.828655 C355.302183,129.391457 358.509107,135.591349 365.865106,133.4463 C366.353909,133.303763 363.045986,128.754143 364.327858,126.596062 C365.60973,124.43798 377.919928,117.684602 386.855309,115.781605 C402.542657,112.440619 415.464889,111.14079 424.412826,113.430897 C425.615576,113.738725 434.58513,126.491867 447.963748,142.218837 C461.342366,157.945806 483.886037,177.191982 486.034717,172.762729 C488.183397,168.333476 467.606792,141.842397 465.305087,118.132947 C464.292332,107.700742 472.936549,90.1236537 483.73325,73.9992862 C497.474394,53.4775315 514.354474,36.3180311 509.924432,33.855968 C505.49439,31.3939049 479.445426,48.7240693 458.929307,65.341674 C443.341165,77.9677256 430.37066,93.3991615 418.963753,92.5808318 C393.808213,90.7761771 358.954204,66.6474824 256.501631,53.2757951 C253.08601,52.8300023 243.915991,41.7987614 242.63631,29.035828 C241.289686,15.6052234 246.787316,0.665340556 242.63631,0.0214689709 C239.105804,-0.526155549 221.181964,9.46401863 208.037267,22.965027 C201.35099,29.832547 195.414154,38.3316684 190.226757,48.4623913 C151.005349,51.3249144 123.522395,54.503651 107.777898,57.9986011 C35.9596987,73.9407435 1.04351993e-15,92.643666 0,98.4308968 C0,102.141343 8.36295441,117.720276 28.2976628,125.510727 C67.8459917,140.966149 94.9823671,157.710741 174.544307,159.641751 C177.031067,159.702106 187.556261,168.322923 198.736196,173.613561 C210.097556,178.990055 222.104504,181.029545 223.177647,180.048416 Z" id="Oval-3" fill="#FFFFFF" fill-rule="nonzero" transform="translate(255.322694, 90.143044) scale(-1, 1) translate(-255.322694, -90.143044) "></path>
    </g>
</svg>