<?xml version="1.0" encoding="UTF-8"?>
<svg width="100px" height="94px" viewBox="0 0 100 94" version="1.1" xmlns="http://www.w3.org/2000/svg" xmlns:xlink="http://www.w3.org/1999/xlink">
    <!-- Generator: Sketch 51.3 (57544) - http://www.bohemiancoding.com/sketch -->
    <title>Artboard 12</title>
    <desc>Created with Sketch.</desc>
    <defs></defs>
    <g id="Artboard-12" stroke="none" stroke-width="1" fill="none" fill-rule="evenodd">
        <path d="M64.5690056,2.8439604 C60.9956292,-0.762015165 55.413479,-3 49.9993936,-3 C44.5853082,-3 39.003158,-0.762015165 35.4297816,2.83996043 C33.0868791,5.20194442 31.6783366,8.03992519 31.2941886,11.1319042 C14.7278075,18.9378513 5.55027246,27.1737955 3.33942087,36.2317342 C2.09694229,41.3616994 4.31779773,43.6636838 9.14565734,46.0076679 C10.7522762,46.7896626 12.4169174,47.5996571 13.6834052,49.0016476 C19.4096109,55.3376047 30.5999212,58.4815834 41.3120474,59.5495761 C41.6701853,61.6275621 44.0571047,63.3575503 47.2483339,64.001546 C46.3960056,69.6815075 47.7705351,73.6474806 49.1030483,77.4854546 C50.6356387,81.8954247 52.0821959,86.0653965 50.6316371,93.6253452 C50.3355231,95.1613348 51.3459122,96.6513247 52.8885064,96.9473227 C54.4210968,97.2473207 55.9216748,96.2353276 56.2137873,94.691338 C57.952457,85.6373994 56.1057457,80.3194354 54.471116,75.6234672 C52.8424887,70.9234991 52.3042814,68.8195133 53.0245588,63.9435464 C56.0777349,63.257551 58.3406065,61.5675625 58.6867398,59.5495761 C69.3968652,58.4835834 80.5891763,55.3376047 86.3113804,49.0016476 C87.5838706,47.5976571 89.2505125,46.7896626 90.8531298,46.0076679 C95.6689848,43.6636838 97.9078472,41.3576994 96.6593663,36.2317342 C94.4465139,27.1737955 85.2709797,18.9358514 68.7065993,11.1319042 C68.3184498,8.03992519 66.911908,5.20194442 64.5690056,2.8439604 Z" id="Shape" fill="#FFFFFF" fill-rule="nonzero" transform="translate(50.000000, 47.000000) rotate(-270.000000) translate(-50.000000, -47.000000) "></path>
    </g>
</svg>