<?xml version="1.0" encoding="UTF-8"?>
<svg width="100px" height="70px" viewBox="0 0 100 70" version="1.1" xmlns="http://www.w3.org/2000/svg" xmlns:xlink="http://www.w3.org/1999/xlink">
    <!-- Generator: Sketch 51.3 (57544) - http://www.bohemiancoding.com/sketch -->
    <title>Artboard 9</title>
    <desc>Created with Sketch.</desc>
    <defs></defs>
    <g id="Artboard-9" stroke="none" stroke-width="1" fill="none" fill-rule="evenodd">
        <path d="M21.6681362,17.0918456 C26.4901663,16.0824853 29.4021844,12.8374017 29.8821874,2.39539981 C29.9141876,1.62295047 29.6881862,0.942080186 29.2341834,0.470249022 C28.7841806,0.00239955603 28.0401759,-0.180758533 27.5501729,0.221392923 C22.7201427,4.18119117 18.2221146,-0.292246065 14.9400942,5.63451079 C11.6600737,-0.292246065 7.16204562,4.18119117 2.33001546,0.221392923 C1.84601244,-0.180758533 1.10000778,0.00239955603 0.650004971,0.472239871 C0.200002162,0.942080186 -0.0339992985,1.62295047 0.0040009387,2.39539981 C0.48000391,12.8095298 3.37602199,16.0665585 8.17805196,17.0838822 C9.1300579,17.2869488 9.90806275,17.3984363 11.0060696,17.468116 L11.0440698,18.7044331 C11.9500755,38.324248 26.7081676,52.1725922 44.2962774,58.4616835 C44.0542759,61.4161031 43.2522709,64.1455568 41.3782592,67.0123791 C40.4982537,68.3581929 41.9022624,70.2674169 43.4962724,69.9687895 C50.0243131,68.738445 55.9983504,66.2737742 61.380384,62.0929917 C62.9003935,62.2064701 64.418403,62.2661956 65.9224124,62.2661956 C79.2664957,62.2502688 89.3345585,57.8027126 95.6205977,49.7357933 C100.032625,44.0817827 101.228633,36.4329416 98.6706168,30.2513561 C96.3886025,24.7426775 91.4145715,21.1113693 85.0245316,20.2871579 C78.6124916,19.4549831 70.5504413,20.8465864 61.6543857,22.4313021 C54.2863397,23.7392897 47.1622953,25.0930669 40.0782511,25.0930669 C30.6521922,25.0930669 24.1321515,22.6463137 19.3621218,17.4263082 C20.0141258,17.4302899 21.0161321,17.2292142 21.6681362,17.0918456 Z" id="Shape" fill="#FFFFFF" fill-rule="nonzero"></path>
    </g>
</svg>